<mxfile host="app.diagrams.net" modified="2022-08-23T08:15:24.472Z" agent="5.0 (Macintosh; Intel Mac OS X 10_15_7) AppleWebKit/537.36 (KHTML, like Gecko) Chrome/104.0.0.0 Safari/537.36" etag="4u9OXMLSfObVu0jgg7mv" version="20.2.4" type="github">
  <diagram id="bzW8M-Hxgqbr8Wwr40zB" name="第 1 页">
    <mxGraphModel dx="1186" dy="653" grid="1" gridSize="10" guides="1" tooltips="1" connect="1" arrows="1" fold="1" page="1" pageScale="1" pageWidth="827" pageHeight="1169" math="0" shadow="0">
      <root>
        <mxCell id="0" />
        <mxCell id="1" parent="0" />
        <mxCell id="b7MyCga4G6APyc6734f0-4" style="edgeStyle=orthogonalEdgeStyle;rounded=0;orthogonalLoop=1;jettySize=auto;html=1;entryX=0;entryY=0.5;entryDx=0;entryDy=0;" edge="1" parent="1" source="b7MyCga4G6APyc6734f0-2" target="b7MyCga4G6APyc6734f0-3">
          <mxGeometry relative="1" as="geometry" />
        </mxCell>
        <mxCell id="b7MyCga4G6APyc6734f0-5" value="1、connect" style="edgeLabel;html=1;align=center;verticalAlign=middle;resizable=0;points=[];" vertex="1" connectable="0" parent="b7MyCga4G6APyc6734f0-4">
          <mxGeometry x="-0.2118" y="2" relative="1" as="geometry">
            <mxPoint as="offset" />
          </mxGeometry>
        </mxCell>
        <mxCell id="b7MyCga4G6APyc6734f0-6" style="edgeStyle=orthogonalEdgeStyle;rounded=0;orthogonalLoop=1;jettySize=auto;html=1;entryX=0.5;entryY=0;entryDx=0;entryDy=0;" edge="1" parent="1" source="b7MyCga4G6APyc6734f0-2" target="b7MyCga4G6APyc6734f0-10">
          <mxGeometry relative="1" as="geometry">
            <mxPoint x="200" y="360" as="targetPoint" />
          </mxGeometry>
        </mxCell>
        <mxCell id="b7MyCga4G6APyc6734f0-7" value="send data" style="edgeLabel;html=1;align=center;verticalAlign=middle;resizable=0;points=[];" vertex="1" connectable="0" parent="b7MyCga4G6APyc6734f0-6">
          <mxGeometry x="0.2" y="3" relative="1" as="geometry">
            <mxPoint as="offset" />
          </mxGeometry>
        </mxCell>
        <mxCell id="b7MyCga4G6APyc6734f0-2" value="client" style="whiteSpace=wrap;html=1;" vertex="1" parent="1">
          <mxGeometry x="140" y="170" width="120" height="60" as="geometry" />
        </mxCell>
        <mxCell id="b7MyCga4G6APyc6734f0-3" value="NettyServerTransport" style="whiteSpace=wrap;html=1;" vertex="1" parent="1">
          <mxGeometry x="430" y="170" width="120" height="60" as="geometry" />
        </mxCell>
        <mxCell id="b7MyCga4G6APyc6734f0-8" style="edgeStyle=orthogonalEdgeStyle;rounded=0;orthogonalLoop=1;jettySize=auto;html=1;entryX=1;entryY=0.25;entryDx=0;entryDy=0;" edge="1" parent="1" source="b7MyCga4G6APyc6734f0-3" target="b7MyCga4G6APyc6734f0-3">
          <mxGeometry relative="1" as="geometry" />
        </mxCell>
        <mxCell id="b7MyCga4G6APyc6734f0-9" value="2、创建" style="edgeLabel;html=1;align=center;verticalAlign=middle;resizable=0;points=[];" vertex="1" connectable="0" parent="b7MyCga4G6APyc6734f0-8">
          <mxGeometry x="-0.0065" y="3" relative="1" as="geometry">
            <mxPoint as="offset" />
          </mxGeometry>
        </mxCell>
        <mxCell id="b7MyCga4G6APyc6734f0-14" style="edgeStyle=orthogonalEdgeStyle;rounded=0;orthogonalLoop=1;jettySize=auto;html=1;" edge="1" parent="1" source="b7MyCga4G6APyc6734f0-10" target="b7MyCga4G6APyc6734f0-11">
          <mxGeometry relative="1" as="geometry" />
        </mxCell>
        <mxCell id="b7MyCga4G6APyc6734f0-10" value="ByteToMessageDecoder" style="whiteSpace=wrap;html=1;" vertex="1" parent="1">
          <mxGeometry x="140" y="370" width="120" height="60" as="geometry" />
        </mxCell>
        <mxCell id="b7MyCga4G6APyc6734f0-15" style="edgeStyle=orthogonalEdgeStyle;rounded=0;orthogonalLoop=1;jettySize=auto;html=1;entryX=0;entryY=0.5;entryDx=0;entryDy=0;" edge="1" parent="1" source="b7MyCga4G6APyc6734f0-11" target="b7MyCga4G6APyc6734f0-12">
          <mxGeometry relative="1" as="geometry" />
        </mxCell>
        <mxCell id="b7MyCga4G6APyc6734f0-11" value="Http2ConnectionHandler" style="whiteSpace=wrap;html=1;" vertex="1" parent="1">
          <mxGeometry x="360" y="370" width="120" height="60" as="geometry" />
        </mxCell>
        <mxCell id="b7MyCga4G6APyc6734f0-16" style="edgeStyle=orthogonalEdgeStyle;rounded=0;orthogonalLoop=1;jettySize=auto;html=1;entryX=0;entryY=0.5;entryDx=0;entryDy=0;" edge="1" parent="1" source="b7MyCga4G6APyc6734f0-12" target="b7MyCga4G6APyc6734f0-13">
          <mxGeometry relative="1" as="geometry" />
        </mxCell>
        <mxCell id="b7MyCga4G6APyc6734f0-12" value="DefaultHttp2FrameReader" style="whiteSpace=wrap;html=1;" vertex="1" parent="1">
          <mxGeometry x="560" y="370" width="120" height="60" as="geometry" />
        </mxCell>
        <mxCell id="b7MyCga4G6APyc6734f0-13" value="NettyServerHandler" style="whiteSpace=wrap;html=1;" vertex="1" parent="1">
          <mxGeometry x="760" y="370" width="120" height="60" as="geometry" />
        </mxCell>
      </root>
    </mxGraphModel>
  </diagram>
</mxfile>
